<?xml version="1.0" standalone="no"?>
<svg xmlns:xlink="http://www.w3.org/1999/xlink" id="wave" style="transform:rotate(180deg); transition: 0.3s" viewBox="0 0 1440 490" version="1.1" xmlns="http://www.w3.org/2000/svg"><defs><linearGradient id="sw-gradient-0" x1="0" x2="0" y1="1" y2="0"><stop stop-color="rgba(209, 71, 163, 1)" offset="0%"/><stop stop-color="rgba(209, 71, 163, 1)" offset="100%"/></linearGradient></defs><path style="transform:translate(0, 0px); opacity:1" fill="url(#sw-gradient-0)" d="M0,196L60,212.3C120,229,240,261,360,261.3C480,261,600,229,720,196C840,163,960,131,1080,114.3C1200,98,1320,98,1440,130.7C1560,163,1680,229,1800,285.8C1920,343,2040,392,2160,351.2C2280,310,2400,180,2520,106.2C2640,33,2760,16,2880,24.5C3000,33,3120,65,3240,106.2C3360,147,3480,196,3600,212.3C3720,229,3840,212,3960,187.8C4080,163,4200,131,4320,147C4440,163,4560,229,4680,269.5C4800,310,4920,327,5040,285.8C5160,245,5280,147,5400,106.2C5520,65,5640,82,5760,106.2C5880,131,6000,163,6120,171.5C6240,180,6360,163,6480,138.8C6600,114,6720,82,6840,98C6960,114,7080,180,7200,236.8C7320,294,7440,343,7560,359.3C7680,376,7800,359,7920,310.3C8040,261,8160,180,8280,130.7C8400,82,8520,65,8580,57.2L8640,49L8640,490L8580,490C8520,490,8400,490,8280,490C8160,490,8040,490,7920,490C7800,490,7680,490,7560,490C7440,490,7320,490,7200,490C7080,490,6960,490,6840,490C6720,490,6600,490,6480,490C6360,490,6240,490,6120,490C6000,490,5880,490,5760,490C5640,490,5520,490,5400,490C5280,490,5160,490,5040,490C4920,490,4800,490,4680,490C4560,490,4440,490,4320,490C4200,490,4080,490,3960,490C3840,490,3720,490,3600,490C3480,490,3360,490,3240,490C3120,490,3000,490,2880,490C2760,490,2640,490,2520,490C2400,490,2280,490,2160,490C2040,490,1920,490,1800,490C1680,490,1560,490,1440,490C1320,490,1200,490,1080,490C960,490,840,490,720,490C600,490,480,490,360,490C240,490,120,490,60,490L0,490Z"/><defs><linearGradient id="sw-gradient-1" x1="0" x2="0" y1="1" y2="0"><stop stop-color="rgba(209, 71, 163, 1)" offset="0%"/><stop stop-color="rgba(209, 71, 163, 1)" offset="100%"/></linearGradient></defs><path style="transform:translate(0, 50px); opacity:0.9" fill="url(#sw-gradient-1)" d="M0,294L60,269.5C120,245,240,196,360,155.2C480,114,600,82,720,106.2C840,131,960,212,1080,204.2C1200,196,1320,98,1440,114.3C1560,131,1680,261,1800,334.8C1920,408,2040,425,2160,359.3C2280,294,2400,147,2520,138.8C2640,131,2760,261,2880,285.8C3000,310,3120,229,3240,228.7C3360,229,3480,310,3600,343C3720,376,3840,359,3960,351.2C4080,343,4200,343,4320,318.5C4440,294,4560,245,4680,261.3C4800,278,4920,359,5040,334.8C5160,310,5280,180,5400,138.8C5520,98,5640,147,5760,212.3C5880,278,6000,359,6120,392C6240,425,6360,408,6480,383.8C6600,359,6720,327,6840,285.8C6960,245,7080,196,7200,220.5C7320,245,7440,343,7560,392C7680,441,7800,441,7920,383.8C8040,327,8160,212,8280,147C8400,82,8520,65,8580,57.2L8640,49L8640,490L8580,490C8520,490,8400,490,8280,490C8160,490,8040,490,7920,490C7800,490,7680,490,7560,490C7440,490,7320,490,7200,490C7080,490,6960,490,6840,490C6720,490,6600,490,6480,490C6360,490,6240,490,6120,490C6000,490,5880,490,5760,490C5640,490,5520,490,5400,490C5280,490,5160,490,5040,490C4920,490,4800,490,4680,490C4560,490,4440,490,4320,490C4200,490,4080,490,3960,490C3840,490,3720,490,3600,490C3480,490,3360,490,3240,490C3120,490,3000,490,2880,490C2760,490,2640,490,2520,490C2400,490,2280,490,2160,490C2040,490,1920,490,1800,490C1680,490,1560,490,1440,490C1320,490,1200,490,1080,490C960,490,840,490,720,490C600,490,480,490,360,490C240,490,120,490,60,490L0,490Z"/><defs><linearGradient id="sw-gradient-2" x1="0" x2="0" y1="1" y2="0"><stop stop-color="rgba(209, 71, 163, 1)" offset="0%"/><stop stop-color="rgba(202.954, 18.978, 141.629, 1)" offset="100%"/></linearGradient></defs><path style="transform:translate(0, 100px); opacity:0.8" fill="url(#sw-gradient-2)" d="M0,49L60,106.2C120,163,240,278,360,285.8C480,294,600,196,720,147C840,98,960,98,1080,138.8C1200,180,1320,261,1440,302.2C1560,343,1680,343,1800,285.8C1920,229,2040,114,2160,73.5C2280,33,2400,65,2520,130.7C2640,196,2760,294,2880,326.7C3000,359,3120,327,3240,285.8C3360,245,3480,196,3600,163.3C3720,131,3840,114,3960,147C4080,180,4200,261,4320,285.8C4440,310,4560,278,4680,253.2C4800,229,4920,212,5040,204.2C5160,196,5280,196,5400,179.7C5520,163,5640,131,5760,171.5C5880,212,6000,327,6120,334.8C6240,343,6360,245,6480,187.8C6600,131,6720,114,6840,130.7C6960,147,7080,196,7200,196C7320,196,7440,147,7560,106.2C7680,65,7800,33,7920,89.8C8040,147,8160,294,8280,343C8400,392,8520,343,8580,318.5L8640,294L8640,490L8580,490C8520,490,8400,490,8280,490C8160,490,8040,490,7920,490C7800,490,7680,490,7560,490C7440,490,7320,490,7200,490C7080,490,6960,490,6840,490C6720,490,6600,490,6480,490C6360,490,6240,490,6120,490C6000,490,5880,490,5760,490C5640,490,5520,490,5400,490C5280,490,5160,490,5040,490C4920,490,4800,490,4680,490C4560,490,4440,490,4320,490C4200,490,4080,490,3960,490C3840,490,3720,490,3600,490C3480,490,3360,490,3240,490C3120,490,3000,490,2880,490C2760,490,2640,490,2520,490C2400,490,2280,490,2160,490C2040,490,1920,490,1800,490C1680,490,1560,490,1440,490C1320,490,1200,490,1080,490C960,490,840,490,720,490C600,490,480,490,360,490C240,490,120,490,60,490L0,490Z"/></svg>